<svg width="96" height="96" viewBox="0 0 96 96" fill="none" xmlns="http://www.w3.org/2000/svg" role="img" aria-label="SBS 4 Any Agent prism mark">
  <defs>
    <linearGradient id="tile" x1="11" y1="10" x2="85" y2="87" gradientUnits="userSpaceOnUse">
      <stop stop-color="#101824"/>
      <stop offset="1" stop-color="#09111B"/>
    </linearGradient>
    <linearGradient id="edge" x1="31" y1="25" x2="66" y2="69" gradientUnits="userSpaceOnUse">
      <stop stop-color="#F9FEFF"/>
      <stop offset="0.48" stop-color="#99F0FF"/>
      <stop offset="1" stop-color="#D7C8FF"/>
    </linearGradient>
    <filter id="prismGlow" x="15" y="18" width="66" height="62" color-interpolation-filters="sRGB">
      <feGaussianBlur stdDeviation="0.9" result="blur"/>
      <feColorMatrix in="blur" type="matrix" values="0 0 0 0 0.30 0 0 0 0 0.92 0 0 0 0 1 0 0 0 0.34 0"/>
      <feBlend in="SourceGraphic"/>
    </filter>
    <filter id="rayGlow" x="6" y="22" width="84" height="56" color-interpolation-filters="sRGB">
      <feGaussianBlur stdDeviation="0.55" result="blur"/>
      <feColorMatrix in="blur" type="matrix" values="0 0 0 0 0.25 0 0 0 0 0.66 0 0 0 0 1 0 0 0 0.28 0"/>
      <feBlend in="SourceGraphic"/>
    </filter>
  </defs>

  <rect x="7.5" y="7.5" width="81" height="81" rx="18" fill="url(#tile)"/>
  <g filter="url(#rayGlow)">
    <path d="M14 48H31" stroke="#BDF7FF" stroke-width="2.9" stroke-linecap="round" opacity="0.95"/>
    <path d="M60.75 48L82 35.6" stroke="#2F8CFF" stroke-width="3.2" stroke-linecap="round"/>
    <path d="M60.75 48L82 43.1" stroke="#31CF7A" stroke-width="3.2" stroke-linecap="round"/>
    <path d="M60.75 48L82 49.9" stroke="#FFC43D" stroke-width="3.2" stroke-linecap="round"/>
    <path d="M60.75 48L82 57.4" stroke="#FF5B45" stroke-width="3.2" stroke-linecap="round"/>
    <path d="M60.75 48L82 66.8" stroke="#8457FF" stroke-width="3.2" stroke-linecap="round"/>
  </g>
  <g filter="url(#prismGlow)">
    <path d="M48 25.5L21.75 68.6H74.25L48 25.5Z" fill="#4FC3E3" fill-opacity="0.16"/>
    <path d="M48 25.5L21.75 68.6H74.25L48 25.5Z" stroke="url(#edge)" stroke-width="4.2" stroke-linejoin="round"/>
    <path d="M48 25.5V68.6" stroke="#E5FBFF" stroke-width="2.25" stroke-linecap="round" opacity="0.92"/>
    <path d="M21.75 68.6L60.75 48L74.25 68.6" stroke="#9EF1FF" stroke-width="2.25" stroke-linecap="round" stroke-linejoin="round" opacity="0.78"/>
    <circle cx="48" cy="41.25" r="2.9" fill="#F7FEFF"/>
  </g>
</svg>
